<?xml version="1.0" encoding="utf-8"?>
<!-- Generator: Adobe Illustrator 16.0.0, SVG Export Plug-In . SVG Version: 6.00 Build 0)  -->
<!DOCTYPE svg PUBLIC "-//W3C//DTD SVG 1.1//EN" "http://www.w3.org/Graphics/SVG/1.1/DTD/svg11.dtd">
<svg version="1.1" id="Capa_1" xmlns="http://www.w3.org/2000/svg" xmlns:xlink="http://www.w3.org/1999/xlink" x="0px" y="0px"
	 width="23.332px" height="23.333px" viewBox="0 0 23.332 23.333" enable-background="new 0 0 23.332 23.333" xml:space="preserve">
<path fill="#FFFFFF" d="M15.98,11.667l6.474-6.474c0.949-0.949,0.949-2.503,0-3.452l-0.862-0.863c-0.949-0.951-2.503-0.951-3.452,0
	l-6.474,6.474L5.192,0.878c-0.948-0.95-2.502-0.95-3.451,0L0.877,1.741c-0.949,0.949-0.949,2.503,0,3.452l6.473,6.473L0.877,18.14
	c-0.949,0.949-0.949,2.503,0,3.451l0.864,0.862c0.949,0.95,2.503,0.95,3.451,0l6.474-6.473l6.474,6.473
	c0.949,0.95,2.503,0.95,3.452,0l0.862-0.862c0.949-0.949,0.949-2.503,0-3.451L15.98,11.667z"/>
</svg>
